<svg width="52" height="51" viewBox="0 0 52 51" fill="none" xmlns="http://www.w3.org/2000/svg">
<path fill-rule="evenodd" clip-rule="evenodd" d="M23.1318 10.9158C30.8638 10.9158 37.1318 17.1838 37.1318 24.9158C37.1318 32.6477 30.8638 38.9158 23.1318 38.9158C15.3999 38.9158 9.13184 32.6477 9.13184 24.9158C9.13184 17.1838 15.3999 10.9158 23.1318 10.9158Z" fill="#0075FF"/>
<path d="M24.9506 38.7983V27.9845H27.9993L28.4034 24.1785H24.9506L24.9558 22.2734C24.9558 21.2808 25.0501 20.7491 26.4759 20.7491H28.382V16.9425H25.3327C21.6699 16.9425 20.3809 18.7887 20.3809 21.8939V24.1788H18.0977V27.9851H20.3809V38.645C21.2704 38.8222 22.19 38.9158 23.1316 38.9158C23.7398 38.9159 24.3474 38.8766 24.9506 38.7983V38.7983Z" fill="white"/>
</svg>
