<svg width="28" height="29" viewBox="0 0 28 29" fill="none" xmlns="http://www.w3.org/2000/svg">
<g clip-path="url(#clip0_120_7676)">
<path d="M19.4989 0.602584C19.4401 0.536905 17.3228 0.62851 15.4804 2.62827C13.6379 4.6263 13.9213 6.91815 13.9628 6.97692C14.0043 7.03569 16.59 7.12729 18.2406 4.80259C19.8912 2.4779 19.5576 0.669992 19.4989 0.602584V0.602584ZM25.2268 20.8819C25.1438 20.716 21.2083 18.749 21.5747 14.9673C21.9411 11.1838 24.4698 10.1468 24.5095 10.0345C24.5493 9.92211 23.4777 8.66902 22.3421 8.0347C21.5083 7.58748 20.5856 7.33126 19.6406 7.28458C19.4539 7.27939 18.8058 7.12038 17.4732 7.48507C16.5952 7.72532 14.6162 8.5031 14.0717 8.53421C13.5255 8.56532 11.9008 7.63198 10.1534 7.38482C9.03515 7.16877 7.84947 7.61124 7.00083 7.95174C6.15391 8.2905 4.54304 9.25495 3.41613 11.8182C2.28921 14.3797 2.87859 18.4379 3.30032 19.6997C3.72205 20.9597 4.38057 23.0251 5.50058 24.5323C6.49613 26.233 7.81663 27.4135 8.36799 27.8145C8.91935 28.2155 10.4749 28.4817 11.5534 27.9303C12.4211 27.398 13.987 27.092 14.6058 27.1145C15.2228 27.137 16.4396 27.3807 17.6858 28.0461C18.6727 28.3866 19.606 28.2449 20.5411 27.8646C21.4762 27.4826 22.8295 26.0342 24.4093 23.0977C25.009 21.7323 25.2821 20.9942 25.2268 20.8819V20.8819Z" fill="black"/>
<path d="M19.4989 0.602584C19.4401 0.536905 17.3228 0.62851 15.4804 2.62827C13.6379 4.6263 13.9213 6.91815 13.9628 6.97692C14.0043 7.03569 16.59 7.12729 18.2406 4.80259C19.8912 2.4779 19.5576 0.669992 19.4989 0.602584V0.602584ZM25.2268 20.8819C25.1438 20.716 21.2083 18.749 21.5747 14.9673C21.9411 11.1838 24.4698 10.1468 24.5095 10.0345C24.5493 9.92211 23.4777 8.66902 22.3421 8.0347C21.5083 7.58748 20.5856 7.33126 19.6406 7.28458C19.4539 7.27939 18.8058 7.12038 17.4732 7.48507C16.5952 7.72532 14.6162 8.5031 14.0717 8.53421C13.5255 8.56532 11.9008 7.63198 10.1534 7.38482C9.03515 7.16877 7.84947 7.61124 7.00083 7.95174C6.15391 8.2905 4.54304 9.25495 3.41613 11.8182C2.28921 14.3797 2.87859 18.4379 3.30032 19.6997C3.72205 20.9597 4.38057 23.0251 5.50058 24.5323C6.49613 26.233 7.81663 27.4135 8.36799 27.8145C8.91935 28.2155 10.4749 28.4817 11.5534 27.9303C12.4211 27.398 13.987 27.092 14.6058 27.1145C15.2228 27.137 16.4396 27.3807 17.6858 28.0461C18.6727 28.3866 19.606 28.2449 20.5411 27.8646C21.4762 27.4826 22.8295 26.0342 24.4093 23.0977C25.009 21.7323 25.2821 20.9942 25.2268 20.8819V20.8819Z" fill="black"/>
</g>
<defs>
<clipPath id="clip0_120_7676">
<rect width="28" height="28" fill="white" transform="translate(0 0.415771)"/>
</clipPath>
</defs>
</svg>
