<svg width="24" height="25" viewBox="0 0 24 25" fill="none" xmlns="http://www.w3.org/2000/svg">
<path fill-rule="evenodd" clip-rule="evenodd" d="M17.0136 22.5H8.66579C5.59943 22.5 3.24703 21.3925 3.91522 16.9348L4.69325 10.8936C5.10515 8.66937 6.52392 7.81812 7.76877 7.81812H17.9473C19.2104 7.81812 20.5468 8.73345 21.0228 10.8936L21.8008 16.9348C22.3683 20.8891 20.08 22.5 17.0136 22.5Z" stroke="white" stroke-width="1.5" stroke-linecap="round" stroke-linejoin="round"/>
<path d="M17.151 7.59842C17.151 5.21235 15.2167 3.27805 12.8306 3.27805V3.27805C11.6816 3.27319 10.578 3.72622 9.76381 4.53697C8.94963 5.34772 8.49193 6.44941 8.49194 7.59842V7.59842" stroke="white" stroke-width="1.5" stroke-linecap="round" stroke-linejoin="round"/>
<path d="M15.7962 12.1018H15.7505" stroke="white" stroke-width="1.5" stroke-linecap="round" stroke-linejoin="round"/>
<path d="M9.96566 12.1018H9.91989" stroke="white" stroke-width="1.5" stroke-linecap="round" stroke-linejoin="round"/>
</svg>
