<svg width="28" height="28" viewBox="0 0 28 28" fill="none" xmlns="http://www.w3.org/2000/svg">
<path d="M6.20539 17.2322L5.23075 20.7408L1.66846 20.8134C0.603859 18.9093 0 16.7308 0 14.4158C0 12.1772 0.564594 10.0661 1.56537 8.20728H1.56614L4.73758 8.76795L6.12686 11.8078C5.83609 12.6252 5.6776 13.5027 5.6776 14.4158C5.67771 15.4068 5.86387 16.3563 6.20539 17.2322Z" fill="#FBBB00"/>
<path d="M27.7552 11.8938C27.916 12.7104 27.9998 13.5538 27.9998 14.4158C27.9998 15.3823 27.8945 16.3251 27.6937 17.2345C27.0122 20.3291 25.2314 23.0313 22.7645 24.9436L22.7637 24.9428L18.7691 24.7463L18.2038 21.3431C19.8407 20.4174 21.1199 18.9687 21.7938 17.2345H14.3076V11.8938H21.903H27.7552V11.8938Z" fill="#518EF8"/>
<path d="M22.7633 24.9427L22.7641 24.9435C20.3649 26.803 17.3172 27.9157 13.9995 27.9157C8.66797 27.9157 4.0326 25.0421 1.66797 20.8134L6.2049 17.2322C7.38719 20.2748 10.431 22.4408 13.9995 22.4408C15.5333 22.4408 16.9703 22.041 18.2033 21.343L22.7633 24.9427Z" fill="#28B446"/>
<path d="M22.9362 4.02372L18.4008 7.60418C17.1247 6.83499 15.6162 6.39065 14.0001 6.39065C10.3508 6.39065 7.25003 8.65596 6.12697 11.8077L1.5662 8.20725H1.56543C3.89545 3.87538 8.58927 0.915771 14.0001 0.915771C17.397 0.915771 20.5116 2.08257 22.9362 4.02372Z" fill="#F14336"/>
</svg>
