<svg width="24" height="24" viewBox="0 0 24 24" fill="none" xmlns="http://www.w3.org/2000/svg">
<path d="M13.0416 2.33698C13.3257 2.33698 13.5798 2.51381 13.6755 2.77857L14.3577 4.6696C14.6022 4.73048 14.8118 4.79136 14.9896 4.85513C15.1839 4.9247 15.4341 5.03003 15.7433 5.17401L17.3319 4.33333C17.4616 4.26464 17.61 4.23984 17.755 4.26266C17.9 4.28549 18.0336 4.3547 18.1359 4.45992L19.5331 5.90452C19.7187 6.09682 19.7709 6.37801 19.6665 6.62344L18.9215 8.36953C19.0452 8.59661 19.1437 8.79084 19.2191 8.95317C19.3003 9.13 19.4008 9.37351 19.5206 9.68755L21.257 10.4316C21.5179 10.5427 21.6793 10.8036 21.6619 11.0829L21.5343 13.0879C21.5256 13.2182 21.4788 13.343 21.3998 13.4469C21.3208 13.5509 21.213 13.6293 21.0898 13.6725L19.4452 14.2571C19.3979 14.4842 19.3486 14.6784 19.2964 14.8427C19.2122 15.0964 19.1161 15.346 19.0084 15.5906L19.8346 17.4169C19.8929 17.5452 19.9086 17.6889 19.8794 17.8267C19.8502 17.9646 19.7776 18.0895 19.6723 18.1832L18.1011 19.5862C17.9976 19.6783 17.8685 19.7364 17.731 19.753C17.5936 19.7696 17.4543 19.7438 17.3319 19.679L15.7124 18.8209C15.4591 18.9551 15.1977 19.0735 14.9297 19.1756L14.2224 19.4403L13.5943 21.1797C13.5478 21.307 13.4638 21.4174 13.3534 21.4962C13.2431 21.575 13.1115 21.6186 12.9759 21.6213L11.1399 21.6628C11.0008 21.6665 10.8639 21.6269 10.7481 21.5495C10.6323 21.4722 10.5434 21.3609 10.4935 21.2309L9.75331 19.2722C9.50077 19.1859 9.25072 19.0924 9.00347 18.992C8.80124 18.9044 8.60207 18.81 8.4063 18.7088L6.57035 19.4935C6.44937 19.5451 6.31601 19.5604 6.18648 19.5376C6.05695 19.5148 5.93685 19.4548 5.8408 19.365L4.48219 18.0904C4.38104 17.9959 4.31215 17.8721 4.28528 17.7363C4.2584 17.6005 4.27489 17.4597 4.33242 17.3338L5.12188 15.6138C5.01688 15.4101 4.91954 15.2025 4.83006 14.9915C4.7256 14.7333 4.62893 14.4719 4.54017 14.2079L2.81051 13.6812C2.66991 13.6387 2.54728 13.551 2.46167 13.4317C2.37605 13.3123 2.33223 13.1681 2.33703 13.0213L2.40467 11.165C2.40948 11.0439 2.44731 10.9264 2.51408 10.8252C2.58084 10.7241 2.67399 10.6431 2.78345 10.591L4.59815 9.71944C4.68221 9.41119 4.75565 9.17155 4.82039 8.99666C4.91155 8.76305 5.01279 8.5335 5.12381 8.30866L4.33725 6.64664C4.27756 6.52042 4.25943 6.37853 4.28547 6.24136C4.31152 6.10419 4.38039 5.97882 4.48219 5.88327L5.83886 4.60196C5.93397 4.51227 6.05297 4.45196 6.18154 4.4283C6.31011 4.40464 6.44278 4.41864 6.56358 4.46862L8.3976 5.22619C8.60052 5.09091 8.78412 4.98172 8.95032 4.89378C9.14841 4.78846 9.41318 4.6783 9.74655 4.55945L10.3843 2.7805C10.4314 2.65031 10.5176 2.53785 10.6311 2.45847C10.7445 2.37909 10.8797 2.33666 11.0182 2.33698H13.0416ZM12.0231 9.11937C10.4123 9.11937 9.10686 10.4094 9.10686 12.0018C9.10686 13.5943 10.4123 14.8852 12.0231 14.8852C13.633 14.8852 14.9384 13.5943 14.9384 12.0018C14.9384 10.4094 13.6339 9.11937 12.0231 9.11937Z" fill="#FCDDEC"/>
</svg>
