<?xml version="1.0" encoding="UTF-8" standalone="no"?>
<!DOCTYPE svg PUBLIC "-//W3C//DTD SVG 1.1//EN" "http://www.w3.org/Graphics/SVG/1.1/DTD/svg11.dtd">
<svg width="100%" height="100%" viewBox="0 0 45 45" version="1.1" xmlns="http://www.w3.org/2000/svg" xmlns:xlink="http://www.w3.org/1999/xlink" xml:space="preserve" xmlns:serif="http://www.serif.com/" style="fill-rule:evenodd;clip-rule:evenodd;stroke-linejoin:round;stroke-miterlimit:2;">
    <g transform="matrix(1,0,0,1,-227.572,-222.62)">
        <g transform="matrix(0.122319,0,0,0.122319,219.379,215.032)">
            <path d="M432.919,245C432.919,346.05 351.002,427.967 249.953,427.967C148.903,427.967 66.986,346.05 66.986,245C66.986,143.951 148.903,62.034 249.953,62.034C351.002,62.034 432.919,143.951 432.919,245Z" style="fill:white;fill-rule:nonzero;"/>
            <path d="M431.766,224.468C431.164,219.083 430.339,213.766 429.28,208.534L370.627,208.534L416.586,169.339C412.703,160.799 408.175,152.615 403.077,144.838L327.907,208.534L296.133,208.534L390.851,128.275C387.964,124.796 384.949,121.426 381.817,118.17L287.383,198.224L287.383,65.872C282.705,64.9 277.963,64.101 273.162,63.493L273.162,224.468L431.766,224.468Z" style="fill:white;fill-rule:nonzero;"/>
            <path d="M273.162,426.507C277.963,425.899 282.705,425.1 287.383,424.128L287.383,298.733L377.344,376.315C384.449,369.421 391.001,361.96 396.917,353.997L320.736,288.178L352.526,288.178L408.437,336.482C410.477,332.954 412.397,329.349 414.203,325.678L370.627,288.178L427.78,288.178C429.043,282.963 430.088,277.663 430.893,272.284L273.162,272.284L273.162,426.507Z" style="fill:white;fill-rule:nonzero;"/>
            <path d="M230.523,63.062C225.712,63.57 220.959,64.267 216.268,65.14L216.302,198.233L119.937,116.278C113.778,122.498 108.065,129.155 102.844,136.202L187.937,208.534L156.137,208.534L91.468,153.518C88.925,157.915 86.567,162.429 84.389,167.047L133.044,208.534L70.626,208.534C69.567,213.766 68.741,219.083 68.139,224.468L230.523,224.468L230.523,63.062Z" style="fill:white;fill-rule:nonzero;"/>
            <path d="M216.302,424.866C220.983,425.737 225.724,426.432 230.523,426.938L230.523,272.284L69.013,272.284C69.818,277.663 70.863,282.963 72.125,288.178L133.044,288.178L86.966,328.222C91.765,337.602 97.353,346.511 103.638,354.865L180.727,288.178L212.541,288.178L117.069,370.762C119.471,373.3 121.947,375.766 124.49,378.163L216.302,298.733L216.302,424.866Z" style="fill:white;fill-rule:nonzero;"/>
            <path d="M327.907,208.534L403.077,144.838C399.307,139.085 395.228,133.553 390.851,128.275L296.133,208.534L327.907,208.534Z" style="fill:rgb(214,35,60);fill-rule:nonzero;"/>
            <path d="M320.736,288.178L396.917,353.997C401.077,348.395 404.927,342.55 408.437,336.482L352.526,288.178L320.736,288.178Z" style="fill:rgb(214,35,60);fill-rule:nonzero;"/>
            <path d="M187.937,208.534L102.844,136.202C98.739,141.743 94.937,147.522 91.468,153.518L156.137,208.534L187.937,208.534Z" style="fill:rgb(214,35,60);fill-rule:nonzero;"/>
            <path d="M180.727,288.178L103.638,354.865C107.814,360.419 112.3,365.725 117.069,370.762L212.541,288.178L180.727,288.178Z" style="fill:rgb(214,35,60);fill-rule:nonzero;"/>
            <path d="M381.817,118.17C356.772,92.138 324.095,73.504 287.383,65.872L287.383,198.224L381.817,118.17Z" style="fill:rgb(53,49,129);fill-rule:nonzero;"/>
            <path d="M216.268,65.14C178.937,72.089 145.592,90.366 119.937,116.278L216.302,198.233L216.268,65.14Z" style="fill:rgb(53,49,129);fill-rule:nonzero;"/>
            <path d="M429.28,208.534C426.514,194.853 422.221,181.726 416.586,169.339L370.627,208.534L429.28,208.534Z" style="fill:rgb(53,49,129);fill-rule:nonzero;"/>
            <path d="M414.203,325.678C420.028,313.843 424.61,301.286 427.78,288.178L370.627,288.178L414.203,325.678Z" style="fill:rgb(53,49,129);fill-rule:nonzero;"/>
            <path d="M216.302,298.733L124.49,378.163C149.492,401.728 181.128,418.327 216.302,424.866L216.302,298.733Z" style="fill:rgb(53,49,129);fill-rule:nonzero;"/>
            <path d="M287.383,424.128C321.949,416.942 352.935,400 377.344,376.315L287.383,298.733L287.383,424.128Z" style="fill:rgb(53,49,129);fill-rule:nonzero;"/>
            <path d="M72.125,288.178C75.524,302.228 80.534,315.649 86.966,328.222L133.044,288.178L72.125,288.178Z" style="fill:rgb(53,49,129);fill-rule:nonzero;"/>
            <path d="M84.389,167.047C78.23,180.105 73.564,194.005 70.626,208.534L133.044,208.534L84.389,167.047Z" style="fill:rgb(53,49,129);fill-rule:nonzero;"/>
            <path d="M230.523,426.938C236.908,427.613 243.389,427.966 249.953,427.966C257.816,427.966 265.561,427.47 273.162,426.507L273.162,272.284L430.893,272.284C432.224,263.382 432.919,254.272 432.919,245C432.919,238.057 432.519,231.21 431.766,224.468L273.162,224.468L273.162,63.493C265.561,62.531 257.816,62.034 249.953,62.034C243.389,62.034 236.908,62.388 230.523,63.062L230.523,224.468L68.139,224.468C67.386,231.21 66.986,238.057 66.986,245C66.986,254.272 67.682,263.382 69.013,272.284L230.523,272.284L230.523,426.938Z" style="fill:rgb(214,35,60);fill-rule:nonzero;"/>
        </g>
    </g>
</svg>
